<svg width="30" height="30" viewBox="0 0 30 30" fill="none" xmlns="http://www.w3.org/2000/svg">
<path fill-rule="evenodd" clip-rule="evenodd" d="M4.5 3H25.5C27.1569 3 28.5 4.34315 28.5 6V24C28.5 25.6569 27.1569 27 25.5 27H4.5C2.84315 27 1.5 25.6569 1.5 24V6C1.5 4.34315 2.84315 3 4.5 3ZM4.5 6V24H25.5V6H4.5ZM10.5 10.7232C10.5 9.95536 11.3295 9.47399 11.9961 9.85494L19.4806 14.1318C20.1524 14.5157 20.1524 15.4843 19.4806 15.8682L11.9961 20.1451C11.3295 20.526 10.5 20.0446 10.5 19.2768V10.7232Z" fill="#CBD4D5"/>
</svg>
